# xmcd CD database file
#
# Track frame offsets:
#	150
#	22029
#	43359
#	63852
#	84629
#	106287
#	127383
#	142209
#	166149
#	184073
#	198262
#	214504
#	236078
#	256161
#	279251
#	301088
#	316849
#	333429
#
# Disc length: 4680 seconds
#
# Revision: 0
# Processed by: cddbd v1.5.2PL0 Copyright (c) Steve Scherf et al.
# Submitted via: CDex 1.70beta2
#
DISCID=05124612
DTITLE=Steve Berry - The Amber Room Disc 5
DYEAR=2003
DGENRE=Audio Book
TTITLE0=The Amber Room Disc 5-01
TTITLE1=The Amber Room Disc 5-02
TTITLE2=The Amber Room Disc 5-03
TTITLE3=The Amber Room Disc 5-04
TTITLE4=The Amber Room Disc 5-05
TTITLE5=The Amber Room Disc 5-06
TTITLE6=The Amber Room Disc 5-07
TTITLE7=The Amber Room Disc 5-08
TTITLE8=The Amber Room Disc 5-09
TTITLE9=The Amber Room Disc 5-10
TTITLE10=The Amber Room Disc 5-11
TTITLE11=The Amber Room Disc 5-12
TTITLE12=The Amber Room Disc 5-13
TTITLE13=The Amber Room Disc 5-14
TTITLE14=The Amber Room Disc 5-15
TTITLE15=The Amber Room Disc 5-16
TTITLE16=The Amber Room Disc 5-17
TTITLE17=The Amber Room Disc 5-18
EXTD=YEAR: 2003
EXTT0=
EXTT1=
EXTT2=
EXTT3=
EXTT4=
EXTT5=
EXTT6=
EXTT7=
EXTT8=
EXTT9=
EXTT10=
EXTT11=
EXTT12=
EXTT13=
EXTT14=
EXTT15=
EXTT16=
EXTT17=
PLAYORDER=
